# File created by Blade
# Date/Time:  Tue Sep 30 19:09:10 2014
#---------------------------------------------------------
:version 1.10
:name HOM
:units
  mass 1.0
  length 1.000000
  angle deg
:documentation
     Acclaim Skeleton File
:root
   axis xyz
   order TX TY TZ RX RY RZ
   position 0.000000 0.000000 0.000000
   orientation 0 0 0
:bonedata
   begin
      id 1
      name Spine_dum
      direction 0.000000 1.000000 0.000000
      length 7.508948
      axis 0.0 0.0 0.0 xyz
   end
   begin
      id 2
      name LeftUpLeg_dum
      direction 1.000000 0.000000 0.000000
      length 3.000560
      axis 0.0 0.0 0.0 xyz
   end
   begin
      id 3
      name RightUpLeg_dum
      direction -1.000000 0.000000 0.000000
      length 3.000560
      axis 0.0 0.0 0.0 xyz
   end
   begin
      id 4
      name Spine
      direction 0.000000 1.000000 0.000000
      length 0.000000
      axis 0.0 0.0 0.0 xyz
      dof rx ry rz
   end
   begin
      id 5
      name Spine_dum1
      direction 0.000000 1.000000 0.000000
      length 13.861154
      axis 0.0 0.0 0.0 xyz
   end
   begin
      id 6
      name Spine_dum2
      direction 0.000000 1.000000 0.000000
      length 8.204781
      axis 0.0 0.0 0.0 xyz
   end
   begin
      id 7
      name Spine_dum3
      direction 0.000000 1.000000 0.000000
      length 8.204781
      axis 0.0 0.0 0.0 xyz
   end
   begin
      id 8
      name Head
      direction 0.000000 1.000000 0.000000
      length 4.527550
      axis 0.0 0.0 0.0 xyz
      dof rx ry rz
   end
   begin
      id 9
      name LeftShoulder
      direction 1.000000 0.000000 0.000000
      length 6.635956
      axis 0.0 0.0 -90.0 xyz
      dof rx ry rz
   end
   begin
      id 10
      name LeftArm
      direction 1.000000 0.000000 0.000000
      length 10.274218
      axis 0.0 0.0 -90.0 xyz
      dof rx ry rz
   end
   begin
      id 11
      name LeftForeArm
      direction 1.000000 0.000000 0.000000
      length 8.522147
      axis 0.0 0.0 -90.0 xyz
      dof ry rz rx
   end
   begin
      id 12
      name LeftHand
      direction 0.000000 0.000000 0.000000
      length 0.000000
      axis 0.0 0.0 -90.0 xyz
      dof rx ry rz
   end
   begin
      id 13
      name LeftHand_dum1
      direction 0.000000 0.000000 0.000000
      length 0.000000
      axis 0.0 0.0 -90.0 xyz
   end
   begin
      id 14
      name LeftHand_dum2
      direction 1.000000 0.000000 0.000000
      length 3.937000
      axis 0.0 0.0 -90.0 xyz
   end
   begin
      id 15
      name LeftHandThumb1
      direction 0.000000 0.000000 1.000000
      length 3.937000
      axis 0.0 0.0 -90.0 xyz
      dof rx rz ry
   end
   begin
      id 16
      name RightShoulder
      direction -1.000000 0.000000 0.000000
      length 6.635956
      axis 0.0 0.0 90.0 xyz
      dof rx ry rz
   end
   begin
      id 17
      name RightArm
      direction -1.000000 0.000000 0.000000
      length 10.274218
      axis 0.0 0.0 90.0 xyz
      dof rx ry rz
   end
   begin
      id 18
      name RightForeArm
      direction -1.000000 0.000000 0.000000
      length 8.522147
      axis 0.0 0.0 90.0 xyz
      dof ry rz rx
   end
   begin
      id 19
      name RightHand
      direction 0.000000 0.000000 0.000000
      length 0.000000
      axis 0.0 0.0 90.0 xyz
      dof rx ry rz
   end
   begin
      id 20
      name RightHand_dum1
      direction 0.000000 0.000000 0.000000
      length 0.000000
      axis 0.0 0.0 90.0 xyz
   end
   begin
      id 21
      name RightHand_dum2
      direction -1.000000 0.000000 0.000000
      length 3.937000
      axis 0.0 0.0 90.0 xyz
   end
   begin
      id 22
      name RightHandThumb1
      direction 0.000000 0.000000 1.000000
      length 3.937000
      axis 0.0 0.0 90.0 xyz
      dof rx rz ry
   end
   begin
      id 23
      name LeftUpLeg
      direction 0.000000 -1.000000 0.000000
      length 16.490845
      axis 0.0 0.0 0.0 xyz
      dof rx ry rz
   end
   begin
      id 24
      name LeftLeg
      direction 0.000000 -1.000000 0.000000
      length 14.556576
      axis 0.0 0.0 0.0 xyz
      dof rx ry rz
   end
   begin
      id 25
      name LeftFoot
      direction 0.000000 -0.258819 0.965926
      length 4.831116
      axis 15.0 0.0 0.0 xyz
      dof rx ry rz
   end
   begin
      id 26
      name LeftToeBase
      direction 0.000000 0.000000 1.000000
      length 2.952750
      axis 0.0 0.0 0.0 xyz
      dof rx ry rz
   end
   begin
      id 27
      name RightUpLeg
      direction 0.000000 -1.000000 0.000000
      length 16.490845
      axis 0.0 0.0 0.0 xyz
      dof rx ry rz
   end
   begin
      id 28
      name RightLeg
      direction 0.000000 -1.000000 0.000000
      length 14.556576
      axis 0.0 0.0 0.0 xyz
      dof rx ry rz
   end
   begin
      id 29
      name RightFoot
      direction 0.000000 -0.258819 0.965926
      length 4.831116
      axis 15.0 0.0 0.0 xyz
      dof rx ry rz
   end
   begin
      id 30
      name RightToeBase
      direction 0.000000 0.000000 1.000000
      length 2.952750
      axis 0.0 0.0 0.0 xyz
      dof rx ry rz
   end
:hierarchy
   begin
      root Spine_dum LeftUpLeg_dum RightUpLeg_dum
      Spine_dum Spine
      LeftUpLeg_dum LeftUpLeg
      RightUpLeg_dum RightUpLeg
      Spine Spine_dum1 Spine_dum2 Spine_dum3
      Spine_dum1 Head
      Spine_dum2 LeftShoulder
      Spine_dum3 RightShoulder
      LeftShoulder LeftArm
      LeftArm LeftForeArm
      LeftForeArm LeftHand
      LeftHand LeftHand_dum1 LeftHand_dum2
      LeftHand_dum1 LeftHandThumb1
      RightShoulder RightArm
      RightArm RightForeArm
      RightForeArm RightHand
      RightHand RightHand_dum1 RightHand_dum2
      RightHand_dum1 RightHandThumb1
      LeftUpLeg LeftLeg
      LeftLeg LeftFoot
      LeftFoot LeftToeBase
      RightUpLeg RightLeg
      RightLeg RightFoot
      RightFoot RightToeBase
   end

# File created by Blade
# Date/Time:  Wed Sep 24 19:42:34 2014
# Frame Rate: 120.000 fps
#------------------------------------------------------
:FULLY-SPECIFIED
:DEGREES
228
root -5.011845 33.006207 -2.867506 8.460882 2.127561 -2.345499
Spine -13.626940 10.362724 -1.081118
Head 16.172056 -6.753805 17.611782
LeftShoulder -13.304814 24.133562 14.178874
LeftArm 14.851654 8.143392 -66.979615
LeftForeArm 2.524148 0.000000 27.115620
LeftHand -22.629407 -0.000000 -8.573003
LeftHandThumb1 -26.253704 0.000000 33.147579
RightShoulder -88.122172 59.291729 -149.699343
RightArm -3.165558 18.160564 45.854839
RightForeArm 33.430089 -0.000000 122.925366
RightHand 1.362532 0.000000 1.441886
RightHandThumb1 -24.326973 -0.000000 -32.862282
LeftUpLeg -1.695460 4.682401 6.754290
LeftLeg -2.348266 -0.000000 0.000000
LeftFoot -8.541203 5.358007 -19.542340
LeftToeBase 10.113148 -0.000000 -0.000000
RightUpLeg -3.774909 -8.493934 1.137928
RightLeg 1.405335 -0.000000 -0.000000
RightFoot -6.578367 -3.601898 -15.176119
RightToeBase 0.054720 -0.000000 -0.000000
229
root -5.011214 33.007512 -2.863430 8.426987 2.086716 -2.366971
Spine -13.630991 10.343681 -1.147760
Head 16.227524 -6.871880 17.600481
LeftShoulder -13.292247 24.090094 14.038843
LeftArm 14.783928 8.956179 -67.379152
LeftForeArm 2.254830 -0.000000 26.361180
LeftHand -22.631061 0.000000 -8.683861
LeftHandThumb1 -26.253704 0.000000 33.147579
RightShoulder -89.698057 59.133369 -151.710538
RightArm -3.968376 17.961174 45.775245
RightForeArm 34.357553 -0.000000 124.071781
RightHand 1.499177 -0.000000 1.412643
RightHandThumb1 -24.326973 -0.000000 -32.862282
LeftUpLeg -1.646648 4.682768 6.773957
LeftLeg -2.348020 -0.000000 0.000000
LeftFoot -8.554047 5.396689 -19.545195
LeftToeBase 10.074740 -0.000000 -0.000000
RightUpLeg -3.743273 -8.499047 1.151663
RightLeg 1.412822 -0.000000 -0.000000
RightFoot -6.565048 -3.561894 -15.194709
RightToeBase 0.091363 -0.000000 -0.000000
230
root -5.010765 33.007799 -2.857571 8.387971 2.031964 -2.400184
Spine -13.639986 10.359159 -1.185595
Head 16.271448 -6.977509 17.538831
LeftShoulder -13.281481 24.019998 13.875349
LeftArm 14.796241 9.586959 -67.825921
LeftForeArm 2.174739 -0.000000 25.419715
LeftHand -22.725837 0.000000 -9.224549
LeftHandThumb1 -26.253704 0.000000 33.147579
RightShoulder -91.286591 58.944134 -153.775329
RightArm -4.839231 17.726703 45.701135
RightForeArm 35.499093 -0.000000 125.200012
RightHand 1.705569 -0.000000 1.336843
RightHandThumb1 -24.326973 -0.000000 -32.862282
LeftUpLeg -1.580614 4.705949 6.805619
LeftLeg -2.355881 -0.000000 0.000000
LeftFoot -8.581117 5.415934 -19.524713
LeftToeBase 10.133220 -0.000000 -0.000000
RightUpLeg -3.699161 -8.485210 1.172895
RightLeg 1.410004 -0.000000 -0.000000
RightFoot -6.551666 -3.523375 -15.189390
RightToeBase 0.025361 -0.000000 -0.000000
231
root -5.009086 33.010144 -2.853489 8.349701 1.995757 -2.426094
Spine -13.655599 10.363242 -1.257923
Head 16.358300 -7.086176 17.533974
LeftShoulder -13.235110 23.886635 13.801615
LeftArm 14.689262 10.358524 -68.317238
LeftForeArm 1.927422 0.000000 24.627101
LeftHand -22.844347 0.000000 -9.195656
LeftHandThumb1 -26.253704 0.000000 33.147579
RightShoulder -92.194335 58.813302 -154.929334
RightArm -5.314449 17.673726 45.619722
RightForeArm 36.523925 -0.000000 126.310417
RightHand 1.894215 -0.000000 1.098746
RightHandThumb1 -24.326973 -0.000000 -32.862282
LeftUpLeg -1.530554 4.717736 6.830316
LeftLeg -2.350713 -0.000000 0.000000
LeftFoot -8.586859 5.418113 -19.581460
LeftToeBase 10.084429 -0.000000 -0.000000
RightUpLeg -3.665285 -8.500251 1.187973
RightLeg 1.424492 -0.000000 -0.000000
RightFoot -6.537750 -3.467200 -15.175035
RightToeBase 0.008663 -0.000000 -0.000000
232
root -5.009299 33.011552 -2.847198 8.297891 1.954127 -2.467621
Spine -13.659069 10.386260 -1.307416
Head 16.416791 -7.172781 17.555245
LeftShoulder -13.165658 23.766796 13.740257
LeftArm 14.569277 11.220516 -68.781522
LeftForeArm 1.581921 -0.000000 23.901867
LeftHand -23.034032 0.000000 -9.255203
LeftHandThumb1 -26.253704 0.000000 33.147579
RightShoulder -93.252246 58.631668 -156.349418
RightArm -6.023438 17.599026 45.551352
RightForeArm 37.493019 -0.000000 127.421396
RightHand 1.980243 -0.000000 1.124433
RightHandThumb1 -24.326973 -0.000000 -32.862282
LeftUpLeg -1.454816 4.726104 6.875656
LeftLeg -2.358999 -0.000000 0.000000
LeftFoot -8.606411 5.439583 -19.553904
LeftToeBase 10.155362 -0.000000 -0.000000
RightUpLeg -3.610674 -8.507967 1.219612
RightLeg 1.428533 -0.000000 -0.000000
RightFoot -6.518667 -3.417910 -15.168870
RightToeBase -0.026748 -0.000000 0.000000
